<?xml version="1.0" encoding="utf-8"?>
<!-- Generator: Adobe Illustrator 24.0.3, SVG Export Plug-In . SVG Version: 6.00 Build 0)  -->
<svg version="1.1" id="Capa_1" xmlns="http://www.w3.org/2000/svg" xmlns:xlink="http://www.w3.org/1999/xlink" x="0px" y="0px"
	 viewBox="0 0 793.09 200.91" style="enable-background:new 0 0 793.09 200.91;" xml:space="preserve">
<style type="text/css">
	.st0{fill:#221F20;}
</style>
<g>
	<g>
		<g>
			<path class="st0" d="M50.26,0v51.63c5.17-6.04,10.98-10.54,17.41-13.53c6.43-2.98,13.74-4.47,21.93-4.47
				c14.88,0,26.52,4.35,34.92,13.04c8.48,8.55,12.72,20.34,12.72,35.35v82.46H74.29V88.82c0-4.96-1.08-8.82-3.23-11.59
				c-2.16-2.76-5.28-4.15-9.38-4.15c-3.81,0-7.62,1.69-11.42,5.07v86.34H0V0H50.26z"/>
			<path class="st0" d="M335.06,34.71l15.63,34.6l14.98-34.6h64.67l-70.17,166.2h-72.43l26.73-63.16l-45.7-103.04H335.06z"/>
			<path class="st0" d="M403.1,136.95c-0.14-5.18,0.75-10.08,2.69-14.71c1.94-4.63,4.58-8.68,7.92-12.13
				c3.34-3.45,7.24-6.14,11.69-8.08c4.45-1.94,9.16-2.88,14.12-2.8c10.35,0,18.86,3.66,25.55,10.99
				c6.68,7.26,10.02,16.6,10.02,28.02c0,14.37-5.57,27.63-16.71,39.77c-11.07,12.07-24.93,19.51-41.6,22.31l-1.94-1.4
				c2.37-1.37,4.56-3.05,6.57-5.07c2.01-2.01,3.74-4.2,5.17-6.58c1.44-2.37,2.6-4.92,3.5-7.65c0.9-2.73,1.46-5.5,1.67-8.3
				C412.66,165.58,403.1,154.12,403.1,136.95z"/>
		</g>
		<path class="st0" d="M281.9,103.8c0-14.08-2.98-26.69-8.95-37.83c-5.89-11.06-14.23-19.47-25.01-25.22
			c-10.71-5.82-22.74-8.73-36.11-8.73c-13.22,0-25.04,2.84-35.46,8.51c-10.28,5.53-18.29,13.37-24.04,23.5
			c-5.68,9.99-8.51,21.34-8.51,34.06c-0.07,6.76,0.68,13.15,2.26,19.18c1.58,6.04,3.9,11.59,6.95,16.65
			c3.05,5.07,6.79,9.63,11.21,13.69c4.42,4.06,9.43,7.49,15.04,10.29s11.73,4.94,18.38,6.41c6.64,1.47,13.7,2.17,21.18,2.1
			c13.43,0,25.36-2.28,35.78-6.84c10.42-4.56,19.47-11.84,27.16-21.83v-22.74c-2.09,2.23-4.46,4.22-7.11,5.98
			c-2.66,1.76-5.52,3.23-8.57,4.42s-6.31,2.1-9.75,2.75c-3.45,0.65-6.94,0.97-10.46,0.97c-3.81,0-7.38-0.48-10.72-1.45
			c-3.34-0.97-6.41-2.37-9.22-4.2c-2.8-1.83-5.25-4.06-7.33-6.68c-2.09-2.62-3.7-5.55-4.85-8.78h68.12V103.8z M167.9,85.26v-1.22
			c0-4.89,1.25-8.87,3.76-11.94c2.51-3.19,5.64-4.79,9.4-4.79c4.2,0,7.57,1.61,10.11,4.84c2.54,3.23,3.9,7.6,4.09,13.11H167.9z
			 M211.29,85.26v-0.87c0-3.49,1.1-6.33,3.31-8.52c2.21-2.28,4.97-3.42,8.28-3.42c3.7,0,6.66,1.15,8.9,3.45
			c2.24,2.3,3.43,5.42,3.6,9.35H211.29z"/>
	</g>
	<g>
		<path class="st0" d="M556.59,43.02h-18.3v47.19h-12.5V43.02h-18.21V32.25h49.01V43.02z"/>
		<path class="st0" d="M614.38,32.25v57.96h-12.83V66.03h-24.92v24.18h-12.83V32.25h12.83v23.18h24.92V32.25H614.38z"/>
		<path class="st0" d="M660,77.46h-22.52l-4.39,12.75h-12.83l21.11-57.96h14.74l21.03,57.96h-12.75L660,77.46z M656.69,67.61
			l-7.95-23.27l-7.95,23.27H656.69z"/>
		<path class="st0" d="M727.64,43.02h-18.3v47.19h-12.5V43.02h-18.21V32.25h49.01V43.02z"/>
		<path class="st0" d="M739.64,33.5l-1.41,19.87h-4.47l-1.32-19.87H739.64z"/>
		<path class="st0" d="M769.86,80.77c4.39,0,7.37-1.74,7.37-5.71c0-4.64-3.97-5.96-12.42-7.87c-12.58-2.57-19.95-7.29-19.95-18.38
			c0-11.84,11.92-17.39,22.93-17.39c12.75,0,23.76,5.55,24.84,21.77h-12.17c-0.58-7.37-4.88-11.09-13.16-11.09
			c-5.05,0-10.02,2.48-10.02,6.95c0,4.39,2.9,6.79,12.34,8.94c12.42,2.57,20.28,6.46,20.28,16.97c0,10.76-8.78,16.06-20.62,16.06
			c-13.66,0-21.69-7.87-22.52-19.29h12.34C759.51,77.71,763.65,80.77,769.86,80.77z"/>
		<path class="st0" d="M533.62,156.35c4.39,0,7.37-1.74,7.37-5.71c0-4.64-3.97-5.96-12.42-7.87c-12.58-2.57-19.95-7.29-19.95-18.38
			c0-11.84,11.92-17.39,22.93-17.39c12.75,0,23.76,5.55,24.84,21.77h-12.17c-0.58-7.37-4.88-11.09-13.16-11.09
			c-5.05,0-10.02,2.48-10.02,6.95c0,4.39,2.9,6.79,12.34,8.94c12.42,2.57,20.28,6.46,20.28,16.97c0,10.76-8.78,16.06-20.62,16.06
			c-13.66,0-21.69-7.87-22.52-19.29h12.34C523.27,153.28,527.41,156.35,533.62,156.35z"/>
		<path class="st0" d="M628.25,165.79h-11.67v-42.56l-14.82,42.56H590l-14.74-42.31v42.31h-11.67v-57.96h16.89l15.4,46.36
			l15.4-46.36h16.97V165.79z"/>
		<path class="st0" d="M672.79,153.04h-22.52l-4.39,12.75h-12.83l21.11-57.96h14.74l21.03,57.96h-12.75L672.79,153.04z
			 M669.48,143.18l-7.95-23.27l-7.95,23.27H669.48z"/>
		<path class="st0" d="M741.76,165.79h-13.33l-3.81-12.42c-2.57-8.36-6.79-7.78-17.8-7.78v20.2h-12.01v-57.96h22.02
			c16.81,0,22.02,9.27,22.02,17.88c0,8.03-3.97,13.33-13.83,15.07c7.04,1.41,10.6,4.64,12.83,12.09L741.76,165.79z M706.82,118.59
			v16.89h10.51c6.29,0,9.02-4.06,9.02-8.53c0-4.55-2.81-8.36-9.02-8.36H706.82z"/>
		<path class="st0" d="M793.09,118.59h-18.3v47.19h-12.5v-47.19h-18.21v-10.76h49.01V118.59z"/>
	</g>
</g>
</svg>
